<svg width="240" height="40" viewBox="0 0 240 40" fill="none" xmlns="http://www.w3.org/2000/svg">
<path d="M64.168 14.512C65.8 14.512 67.112 15.016 68.104 16.024C69.112 17.016 69.616 18.408 69.616 20.2V28H66.256V20.656C66.256 19.616 65.992 18.824 65.464 18.28C64.936 17.72 64.216 17.44 63.304 17.44C62.392 17.44 61.664 17.72 61.12 18.28C60.592 18.824 60.328 19.616 60.328 20.656V28H56.968V20.656C56.968 19.616 56.704 18.824 56.176 18.28C55.648 17.72 54.928 17.44 54.016 17.44C53.088 17.44 52.352 17.72 51.808 18.28C51.28 18.824 51.016 19.616 51.016 20.656V28H47.656V14.704H51.016V16.312C51.448 15.752 52 15.312 52.672 14.992C53.36 14.672 54.112 14.512 54.928 14.512C55.968 14.512 56.896 14.736 57.712 15.184C58.528 15.616 59.16 16.24 59.608 17.056C60.04 16.288 60.664 15.672 61.48 15.208C62.312 14.744 63.208 14.512 64.168 14.512ZM78.7084 28.216C77.4284 28.216 76.2764 27.936 75.2524 27.376C74.2284 26.8 73.4204 25.992 72.8284 24.952C72.2524 23.912 71.9644 22.712 71.9644 21.352C71.9644 19.992 72.2604 18.792 72.8524 17.752C73.4604 16.712 74.2844 15.912 75.3244 15.352C76.3644 14.776 77.5244 14.488 78.8044 14.488C80.0844 14.488 81.2444 14.776 82.2844 15.352C83.3244 15.912 84.1404 16.712 84.7324 17.752C85.3404 18.792 85.6444 19.992 85.6444 21.352C85.6444 22.712 85.3324 23.912 84.7084 24.952C84.1004 25.992 83.2684 26.8 82.2124 27.376C81.1724 27.936 80.0044 28.216 78.7084 28.216ZM78.7084 25.288C79.3164 25.288 79.8844 25.144 80.4124 24.856C80.9564 24.552 81.3884 24.104 81.7084 23.512C82.0284 22.92 82.1884 22.2 82.1884 21.352C82.1884 20.088 81.8524 19.12 81.1804 18.448C80.5244 17.76 79.7164 17.416 78.7564 17.416C77.7964 17.416 76.9884 17.76 76.3324 18.448C75.6924 19.12 75.3724 20.088 75.3724 21.352C75.3724 22.616 75.6844 23.592 76.3084 24.28C76.9484 24.952 77.7484 25.288 78.7084 25.288ZM95.4771 14.512C97.0611 14.512 98.3411 15.016 99.3171 16.024C100.293 17.016 100.781 18.408 100.781 20.2V28H97.4211V20.656C97.4211 19.6 97.1571 18.792 96.6291 18.232C96.1011 17.656 95.3811 17.368 94.4691 17.368C93.5411 17.368 92.8051 17.656 92.2611 18.232C91.7331 18.792 91.4691 19.6 91.4691 20.656V28H88.1091V14.704H91.4691V16.36C91.9171 15.784 92.4851 15.336 93.1731 15.016C93.8771 14.68 94.6451 14.512 95.4771 14.512ZM116.336 21.064C116.336 21.544 116.304 21.976 116.24 22.36H106.52C106.6 23.32 106.936 24.072 107.528 24.616C108.12 25.16 108.848 25.432 109.712 25.432C110.96 25.432 111.848 24.896 112.376 23.824H116C115.616 25.104 114.88 26.16 113.792 26.992C112.704 27.808 111.368 28.216 109.784 28.216C108.504 28.216 107.352 27.936 106.328 27.376C105.32 26.8 104.528 25.992 103.952 24.952C103.392 23.912 103.112 22.712 103.112 21.352C103.112 19.976 103.392 18.768 103.952 17.728C104.512 16.688 105.296 15.888 106.304 15.328C107.312 14.768 108.472 14.488 109.784 14.488C111.048 14.488 112.176 14.76 113.168 15.304C114.176 15.848 114.952 16.624 115.496 17.632C116.056 18.624 116.336 19.768 116.336 21.064ZM112.856 20.104C112.84 19.24 112.528 18.552 111.92 18.04C111.312 17.512 110.568 17.248 109.688 17.248C108.856 17.248 108.152 17.504 107.576 18.016C107.016 18.512 106.672 19.208 106.544 20.104H112.856ZM131.509 14.704L123.277 34.288H119.701L122.581 27.664L117.253 14.704H121.021L124.453 23.992L127.933 14.704H131.509ZM143.544 18.016V20.848H133.368V18.016H143.544ZM150.672 16.624C151.104 16.016 151.696 15.512 152.448 15.112C153.216 14.696 154.088 14.488 155.064 14.488C156.2 14.488 157.224 14.768 158.136 15.328C159.064 15.888 159.792 16.688 160.32 17.728C160.864 18.752 161.136 19.944 161.136 21.304C161.136 22.664 160.864 23.872 160.32 24.928C159.792 25.968 159.064 26.776 158.136 27.352C157.224 27.928 156.2 28.216 155.064 28.216C154.088 28.216 153.224 28.016 152.472 27.616C151.736 27.216 151.136 26.712 150.672 26.104V34.336H147.312V14.704H150.672V16.624ZM157.704 21.304C157.704 20.504 157.536 19.816 157.2 19.24C156.88 18.648 156.448 18.2 155.904 17.896C155.376 17.592 154.8 17.44 154.176 17.44C153.568 17.44 152.992 17.6 152.448 17.92C151.92 18.224 151.488 18.672 151.152 19.264C150.832 19.856 150.672 20.552 150.672 21.352C150.672 22.152 150.832 22.848 151.152 23.44C151.488 24.032 151.92 24.488 152.448 24.808C152.992 25.112 153.568 25.264 154.176 25.264C154.8 25.264 155.376 25.104 155.904 24.784C156.448 24.464 156.88 24.008 157.2 23.416C157.536 22.824 157.704 22.12 157.704 21.304ZM166.938 16.768C167.37 16.064 167.93 15.512 168.618 15.112C169.322 14.712 170.122 14.512 171.018 14.512V18.04H170.13C169.074 18.04 168.274 18.288 167.73 18.784C167.202 19.28 166.938 20.144 166.938 21.376V28H163.578V14.704H166.938V16.768ZM179.185 28.216C177.905 28.216 176.753 27.936 175.729 27.376C174.705 26.8 173.897 25.992 173.305 24.952C172.729 23.912 172.441 22.712 172.441 21.352C172.441 19.992 172.737 18.792 173.329 17.752C173.937 16.712 174.761 15.912 175.801 15.352C176.841 14.776 178.001 14.488 179.281 14.488C180.561 14.488 181.721 14.776 182.761 15.352C183.801 15.912 184.617 16.712 185.209 17.752C185.817 18.792 186.121 19.992 186.121 21.352C186.121 22.712 185.809 23.912 185.185 24.952C184.577 25.992 183.745 26.8 182.689 27.376C181.649 27.936 180.481 28.216 179.185 28.216ZM179.185 25.288C179.793 25.288 180.361 25.144 180.889 24.856C181.433 24.552 181.865 24.104 182.185 23.512C182.505 22.92 182.665 22.2 182.665 21.352C182.665 20.088 182.329 19.12 181.657 18.448C181.001 17.76 180.193 17.416 179.233 17.416C178.273 17.416 177.465 17.76 176.809 18.448C176.169 19.12 175.849 20.088 175.849 21.352C175.849 22.616 176.161 23.592 176.785 24.28C177.425 24.952 178.225 25.288 179.185 25.288ZM190.29 13.12C189.682 13.12 189.178 12.936 188.778 12.568C188.394 12.184 188.202 11.712 188.202 11.152C188.202 10.592 188.394 10.128 188.778 9.76C189.178 9.376 189.682 9.184 190.29 9.184C190.882 9.184 191.37 9.376 191.754 9.76C192.138 10.128 192.33 10.592 192.33 11.152C192.33 11.712 192.138 12.184 191.754 12.568C191.37 12.936 190.882 13.12 190.29 13.12ZM191.946 30.184C191.946 31.656 191.578 32.712 190.842 33.352C190.122 34.008 189.082 34.336 187.722 34.336H186.234V31.48H187.194C187.706 31.48 188.066 31.376 188.274 31.168C188.482 30.976 188.586 30.656 188.586 30.208V14.704H191.946V30.184ZM207.625 21.064C207.625 21.544 207.593 21.976 207.529 22.36H197.809C197.889 23.32 198.225 24.072 198.817 24.616C199.409 25.16 200.137 25.432 201.001 25.432C202.249 25.432 203.137 24.896 203.665 23.824H207.289C206.905 25.104 206.169 26.16 205.081 26.992C203.993 27.808 202.657 28.216 201.073 28.216C199.793 28.216 198.641 27.936 197.617 27.376C196.609 26.8 195.817 25.992 195.241 24.952C194.681 23.912 194.401 22.712 194.401 21.352C194.401 19.976 194.681 18.768 195.241 17.728C195.801 16.688 196.585 15.888 197.593 15.328C198.601 14.768 199.761 14.488 201.073 14.488C202.337 14.488 203.465 14.76 204.457 15.304C205.465 15.848 206.241 16.624 206.785 17.632C207.345 18.624 207.625 19.768 207.625 21.064ZM204.145 20.104C204.129 19.24 203.817 18.552 203.209 18.04C202.601 17.512 201.857 17.248 200.977 17.248C200.145 17.248 199.441 17.504 198.865 18.016C198.305 18.512 197.961 19.208 197.833 20.104H204.145ZM209.214 21.352C209.214 19.976 209.494 18.776 210.054 17.752C210.614 16.712 211.39 15.912 212.382 15.352C213.374 14.776 214.51 14.488 215.79 14.488C217.438 14.488 218.798 14.904 219.87 15.736C220.958 16.552 221.686 17.704 222.054 19.192H218.43C218.238 18.616 217.91 18.168 217.446 17.848C216.998 17.512 216.438 17.344 215.766 17.344C214.806 17.344 214.046 17.696 213.486 18.4C212.926 19.088 212.646 20.072 212.646 21.352C212.646 22.616 212.926 23.6 213.486 24.304C214.046 24.992 214.806 25.336 215.766 25.336C217.126 25.336 218.014 24.728 218.43 23.512H222.054C221.686 24.952 220.958 26.096 219.87 26.944C218.782 27.792 217.422 28.216 215.79 28.216C214.51 28.216 213.374 27.936 212.382 27.376C211.39 26.8 210.614 26 210.054 24.976C209.494 23.936 209.214 22.728 209.214 21.352ZM228.427 17.464V23.896C228.427 24.344 228.531 24.672 228.739 24.88C228.963 25.072 229.331 25.168 229.843 25.168H231.403V28H229.291C226.459 28 225.043 26.624 225.043 23.872V17.464H223.459V14.704H225.043V11.416H228.427V14.704H231.403V17.464H228.427Z" fill="white"/>
<path d="M34.1422 5.85781C30.3647 2.08031 25.3422 0 20 0C14.6578 0 9.63531 2.08031 5.85781 5.85781C2.08031 9.63531 0 14.6578 0 20C0 25.3422 2.08039 30.3646 5.85781 34.1422C9.63523 37.9198 14.6578 40 20 40C25.3422 40 30.3647 37.9197 34.1422 34.1422C37.9197 30.3647 40 25.3422 40 20C40 14.6578 37.9196 9.63539 34.1422 5.85781Z" fill="#33CC95"/>
<g clip-path="url(#clip0_523_59)">
<path d="M20.5713 8V33.1429" stroke="white" stroke-width="2" stroke-linecap="round" stroke-linejoin="round"/>
<path d="M26.2853 12.5714H17.7139C16.653 12.5714 15.6356 12.9928 14.8854 13.743C14.1353 14.4931 13.7139 15.5105 13.7139 16.5714C13.7139 17.6323 14.1353 18.6497 14.8854 19.3998C15.6356 20.15 16.653 20.5714 17.7139 20.5714H23.4282C24.489 20.5714 25.5064 20.9928 26.2566 21.743C27.0067 22.4931 27.4282 23.5105 27.4282 24.5714C27.4282 25.6323 27.0067 26.6497 26.2566 27.3998C25.5064 28.15 24.489 28.5714 23.4282 28.5714H13.7139" stroke="white" stroke-width="2" stroke-linecap="round" stroke-linejoin="round"/>
</g>
<defs>
<clipPath id="clip0_523_59">
<rect width="27.4286" height="27.4286" fill="white" transform="translate(6.85693 6.85712)"/>
</clipPath>
</defs>
</svg>
